# xmcd CD database file
#
# Track frame offsets:
#	150
#	6082
#	30503
#	41585
#	55541
#	76924
#	93137
#	105499
#	120629
#	134896
#	156375
#	175212
#	195900
#	210551
#	229578
#	257604
#	275796
#	292794
#	309796
#	331518
#
# Disc length: 4639 seconds
#
# Revision: 3
# Processed by: cddbd v1.5.2PL0 Copyright (c) Steve Scherf et al.
# Submitted via: CDex 1.51
#
DISCID=fa121d14
DTITLE=Felix Cameroni - Una vita in Si Bemolle - CD1 - Una serata al Night
DYEAR=2008
DGENRE=Jazz
TTITLE0=SIGLA
TTITLE1=Si me dices que si
TTITLE2=All the Things you are
TTITLE3=Profumo d'Oriente
TTITLE4=Wabash Blues
TTITLE5=Mezzanotte a Mosca
TTITLE6=Take Five
TTITLE7=Red Roses for a Blue Lady
TTITLE8=Petite Fleur
TTITLE9=Lettera a Pinocchio
TTITLE10=Tiger Rag
TTITLE11=Munasterio 'e Santa Chiara
TTITLE12=Il volo del calabrone
TTITLE13=Tempo d'amore
TTITLE14=Summertime
TTITLE15=Ritornerà l'autunno
TTITLE16=Begine the Beguine
TTITLE17=Malinconia
TTITLE18=Basin Street Blues
TTITLE19=Saint James Infirmary
EXTD=YEAR: 2008
EXTT0=
EXTT1=
EXTT2=
EXTT3=
EXTT4=
EXTT5=
EXTT6=
EXTT7=
EXTT8=
EXTT9=
EXTT10=
EXTT11=
EXTT12=
EXTT13=
EXTT14=
EXTT15=
EXTT16=
EXTT17=
EXTT18=
EXTT19=
PLAYORDER=
